<svg width="177" height="64" viewBox="0 0 177 64" fill="none" xmlns="http://www.w3.org/2000/svg">
<rect x="0.5" y="0.5" width="15" height="15" rx="3.5" fill="#18181B" stroke="#27272A"/>
<rect x="20.5" y="0.5" width="15" height="15" rx="3.5" fill="#4C1D95" stroke="#6D28D9"/>
<rect x="40.5" y="0.5" width="15" height="15" rx="3.5" fill="#5B21B6" stroke="#7C3AED"/>
<rect x="60.5" y="0.5" width="15" height="15" rx="3.5" fill="#6D28D9" stroke="#8B5CF6"/>
<rect x="80.5" y="0.5" width="15" height="15" rx="3.5" fill="#7C3AED" stroke="#A78BFA"/>
<rect x="100.5" y="0.5" width="15" height="15" rx="3.5" fill="#8B5CF6" stroke="#C4B5FD"/>
<path d="M9.97727 48.0682V63H1.64205V28.0909H9.70455V41.625H9.99432C10.5852 40.0114 11.5511 38.75 12.892 37.8409C14.2443 36.9318 15.8977 36.4773 17.8523 36.4773C19.6932 36.4773 21.2955 36.8864 22.6591 37.7045C24.0227 38.5114 25.0795 39.6534 25.8295 41.1307C26.5909 42.608 26.9659 44.3352 26.9545 46.3125V63H18.6193V47.9489C18.6307 46.4943 18.267 45.358 17.5284 44.5398C16.7898 43.7216 15.75 43.3125 14.4091 43.3125C13.5341 43.3125 12.7614 43.5057 12.0909 43.892C11.4318 44.267 10.9148 44.8068 10.5398 45.5114C10.1761 46.2159 9.98864 47.0682 9.97727 48.0682ZM39.5384 63.4432C37.8679 63.4432 36.3849 63.1648 35.0895 62.608C33.8054 62.0398 32.7884 61.1875 32.0384 60.0511C31.2997 58.9034 30.9304 57.4659 30.9304 55.7386C30.9304 54.2841 31.1861 53.0568 31.6974 52.0568C32.2088 51.0568 32.9134 50.2443 33.8111 49.6193C34.7088 48.9943 35.7429 48.5227 36.9134 48.2045C38.0838 47.875 39.3338 47.6534 40.6634 47.5398C42.152 47.4034 43.3509 47.2614 44.2599 47.1136C45.169 46.9545 45.8281 46.733 46.2372 46.4489C46.6577 46.1534 46.8679 45.7386 46.8679 45.2045V45.1193C46.8679 44.2443 46.5668 43.5682 45.9645 43.0909C45.3622 42.6136 44.5497 42.375 43.527 42.375C42.4247 42.375 41.5384 42.6136 40.8679 43.0909C40.1974 43.5682 39.7713 44.2273 39.5895 45.0682L31.902 44.7955C32.1293 43.2045 32.7145 41.7841 33.6577 40.5341C34.6122 39.2727 35.919 38.2841 37.5781 37.5682C39.2486 36.8409 41.2543 36.4773 43.5952 36.4773C45.2656 36.4773 46.8054 36.6761 48.2145 37.0739C49.6236 37.4602 50.8509 38.0284 51.8963 38.7784C52.9418 39.517 53.7486 40.4261 54.3168 41.5057C54.8963 42.5852 55.1861 43.8182 55.1861 45.2045V63H47.3452V59.3523H47.1406C46.6747 60.2386 46.0781 60.9886 45.3509 61.6023C44.6349 62.2159 43.7884 62.6761 42.8111 62.983C41.8452 63.2898 40.7543 63.4432 39.5384 63.4432ZM42.1122 57.9886C43.0099 57.9886 43.8168 57.8068 44.5327 57.4432C45.2599 57.0795 45.8395 56.5795 46.2713 55.9432C46.7031 55.2955 46.919 54.5455 46.919 53.6932V51.2045C46.6804 51.3295 46.3906 51.4432 46.0497 51.5455C45.7202 51.6477 45.3565 51.7443 44.9588 51.8352C44.5611 51.9261 44.152 52.0057 43.7315 52.0739C43.3111 52.142 42.9077 52.2045 42.5213 52.2614C41.7372 52.3864 41.0668 52.5795 40.5099 52.8409C39.9645 53.1023 39.544 53.4432 39.2486 53.8636C38.9645 54.2727 38.8224 54.7614 38.8224 55.3295C38.8224 56.1932 39.1293 56.8523 39.7429 57.3068C40.3679 57.7614 41.1577 57.9886 42.1122 57.9886ZM41.0043 33.4943L44.4474 25.8068H51.8281L46.6804 33.4943H41.0043ZM60.2827 63V28.0909H68.6179V41.3011H68.7884C69.1293 40.5057 69.6122 39.7386 70.2372 39C70.8736 38.2614 71.6804 37.6591 72.6577 37.1932C73.6463 36.7159 74.8281 36.4773 76.2031 36.4773C78.0213 36.4773 79.7202 36.9545 81.2997 37.9091C82.8906 38.8636 84.1747 40.3352 85.152 42.3239C86.1293 44.3125 86.6179 46.8466 86.6179 49.9261C86.6179 52.892 86.1463 55.375 85.2031 57.375C84.2713 59.375 83.0099 60.875 81.419 61.875C79.8395 62.875 78.0838 63.375 76.152 63.375C74.8338 63.375 73.6918 63.1591 72.7259 62.7273C71.7599 62.2955 70.9474 61.7273 70.2884 61.0227C69.6406 60.3182 69.1406 59.5625 68.7884 58.7557H68.5327V63H60.2827ZM68.4474 49.9091C68.4474 51.3182 68.6349 52.5455 69.0099 53.5909C69.3963 54.6364 69.9474 55.4489 70.6634 56.0284C71.3906 56.5966 72.2599 56.8807 73.2713 56.8807C74.294 56.8807 75.1634 56.5966 75.8793 56.0284C76.5952 55.4489 77.1349 54.6364 77.4986 53.5909C77.8736 52.5455 78.0611 51.3182 78.0611 49.9091C78.0611 48.5 77.8736 47.2784 77.4986 46.2443C77.1349 45.2102 76.5952 44.4091 75.8793 43.8409C75.1747 43.2727 74.3054 42.9886 73.2713 42.9886C72.2486 42.9886 71.3793 43.267 70.6634 43.8239C69.9474 44.3807 69.3963 45.1761 69.0099 46.2102C68.6349 47.2443 68.4474 48.4773 68.4474 49.9091ZM90.9858 63V36.8182H99.321V63H90.9858ZM95.1619 33.767C93.9915 33.767 92.9858 33.3807 92.1449 32.608C91.304 31.8239 90.8835 30.8807 90.8835 29.7784C90.8835 28.6875 91.304 27.7557 92.1449 26.983C92.9858 26.1989 93.9915 25.8068 95.1619 25.8068C96.3438 25.8068 97.3494 26.1989 98.179 26.983C99.0199 27.7557 99.4403 28.6875 99.4403 29.7784C99.4403 30.8807 99.0199 31.8239 98.179 32.608C97.3494 33.3807 96.3438 33.767 95.1619 33.767ZM119.405 36.8182V42.9545H102.888V36.8182H119.405ZM106.348 30.5455H114.683V54.767C114.683 55.2784 114.763 55.6932 114.922 56.0114C115.092 56.3182 115.337 56.5398 115.655 56.6761C115.973 56.8011 116.354 56.8636 116.797 56.8636C117.115 56.8636 117.45 56.8352 117.803 56.7784C118.166 56.7102 118.439 56.6534 118.621 56.608L119.882 62.625C119.484 62.7386 118.922 62.8807 118.195 63.0511C117.479 63.2216 116.621 63.3295 115.621 63.375C113.666 63.4659 111.99 63.2386 110.592 62.6932C109.206 62.1364 108.143 61.2727 107.405 60.1023C106.678 58.9318 106.325 57.4602 106.348 55.6875V30.5455ZM135.598 63.4943C132.848 63.4943 130.484 62.9318 128.507 61.8068C126.541 60.6705 125.024 59.0909 123.956 57.0682C122.899 55.0341 122.371 52.6761 122.371 49.9943C122.371 47.3011 122.899 44.9432 123.956 42.9205C125.024 40.8864 126.541 39.3068 128.507 38.1818C130.484 37.0455 132.848 36.4773 135.598 36.4773C138.348 36.4773 140.706 37.0455 142.672 38.1818C144.649 39.3068 146.166 40.8864 147.223 42.9205C148.291 44.9432 148.825 47.3011 148.825 49.9943C148.825 52.6761 148.291 55.0341 147.223 57.0682C146.166 59.0909 144.649 60.6705 142.672 61.8068C140.706 62.9318 138.348 63.4943 135.598 63.4943ZM135.649 57.2045C136.649 57.2045 137.496 56.8977 138.189 56.2841C138.882 55.6705 139.411 54.8182 139.774 53.7273C140.149 52.6364 140.337 51.375 140.337 49.9432C140.337 48.4886 140.149 47.2159 139.774 46.125C139.411 45.0341 138.882 44.1818 138.189 43.5682C137.496 42.9545 136.649 42.6477 135.649 42.6477C134.615 42.6477 133.74 42.9545 133.024 43.5682C132.32 44.1818 131.78 45.0341 131.405 46.125C131.041 47.2159 130.859 48.4886 130.859 49.9432C130.859 51.375 131.041 52.6364 131.405 53.7273C131.78 54.8182 132.32 55.6705 133.024 56.2841C133.74 56.8977 134.615 57.2045 135.649 57.2045ZM175.953 44.8125L168.3 45.017C168.22 44.4716 168.004 43.9886 167.652 43.5682C167.3 43.1364 166.839 42.8011 166.271 42.5625C165.714 42.3125 165.067 42.1875 164.328 42.1875C163.362 42.1875 162.538 42.3807 161.857 42.767C161.186 43.1534 160.857 43.6761 160.868 44.3352C160.857 44.8466 161.061 45.2898 161.482 45.6648C161.913 46.0398 162.68 46.3409 163.783 46.5682L168.828 47.5227C171.442 48.0227 173.385 48.8523 174.658 50.0114C175.942 51.1705 176.589 52.7045 176.601 54.6136C176.589 56.4091 176.055 57.9716 174.999 59.3011C173.953 60.6307 172.521 61.6648 170.703 62.4034C168.885 63.1307 166.805 63.4943 164.464 63.4943C160.726 63.4943 157.777 62.7273 155.618 61.1932C153.47 59.6477 152.243 57.5795 151.936 54.9886L160.169 54.7841C160.351 55.7386 160.822 56.4659 161.584 56.9659C162.345 57.4659 163.317 57.7159 164.499 57.7159C165.567 57.7159 166.436 57.517 167.107 57.1193C167.777 56.7216 168.118 56.1932 168.129 55.5341C168.118 54.9432 167.857 54.4716 167.345 54.1193C166.834 53.7557 166.033 53.4716 164.942 53.267L160.374 52.3977C157.749 51.9205 155.794 51.0398 154.51 49.7557C153.226 48.4602 152.589 46.8125 152.601 44.8125C152.589 43.0625 153.055 41.5682 153.999 40.3295C154.942 39.0795 156.283 38.125 158.021 37.4659C159.76 36.8068 161.811 36.4773 164.175 36.4773C167.72 36.4773 170.516 37.2216 172.561 38.7102C174.607 40.1875 175.737 42.2216 175.953 44.8125Z" fill="white"/>
</svg>
